@startuml entity-relationship-diagram
skinparam linetype ortho

package 訪問情報 {
  entity visit_infos {
    visit_info_id binary(16) <<PK>>
    --
    patient_id binary(16) <<FK>> "患者ID"
    assigned_user_id binary(16) <<FK>> "担当者ID（UserID）"
    companion_user_id binary(16) <<FK>> "同行者ID（UserID）"
    schedule_category_id binary(16) <<FK>> "訪問カテゴリ"
    route_id binary(16) <<FK>> "ルートID"
    service_code_id binary(16) <<FK>> "サービスコードID"
    service_time int "提供時間"
  }

  entity service_codes {
    id binary(16) <<PK>>
    --
    code string "サービスコード"
    service_time int "提供時間"
  }
  note bottom of service_codes
    コードIDに応じてサービスコードを設定
    1. 訪看I2
    2. 訪看I3
    ...
  end note

  entity visit_categories {
    id binary(16) <<PK>>
    --
    name string "予定のカテゴリ"
  }

  note bottom of visit_categories
  緊急訪問件数・入院件数をカウントする
  複数選択するかどうかで、多:多の関係になる
    1:夜勤
    2:緊急
    3:入院
    ...
  end note

  entity routes {
    id binary(16) <<PK>>
    --
    travel_time int "移動時間"
    address_id binary(16) <<FK>> "出発地の住所ID"
    destination_id binary(16) <<FK>> "目的地の住所ID"
  }

  note bottom of routes
    出発地と目的地は、addressテーブルに対応させる？
    ...
  end note
}

package 患者情報 {
  entity patients {}
}

package 職員情報 {
  entity users {}
}

users }o--|| visit_infos
visit_infos ||--|| service_codes
visit_infos ||--|| patients
visit_infos ||--|| routes
visit_infos }o--o{ visit_categories

@enduml